<svg width="961.2020263671875" height="180.4010009765625" viewBox="0 0 961.202 180.401" xmlns="http://www.w3.org/2000/svg"><g id="svgGroup" stroke-linecap="round" fill-rule="evenodd" font-size="9pt" stroke="#ffd500" stroke-width="1mm" fill="#160484" style="stroke:#ffd500;stroke-width:1mm;fill:#160484"><path d="M 109.6 5.6 L 109.6 137.4 Q 109.6 141.378 92.739 141.588 A 155.265 155.265 0 0 1 90.8 141.6 A 181.885 181.885 0 0 1 84.599 141.503 Q 72.855 141.1 70.724 139.02 A 1.729 1.729 0 0 1 70.4 138.6 L 37 76.2 L 37 138.4 A 1.9 1.9 0 0 1 35.844 139.975 Q 32.375 142 18.5 142 Q 2.7 142 0.394 139.374 A 1.449 1.449 0 0 1 0 138.4 L 0 4.6 Q 0 1.884 12.951 1.627 A 143.838 143.838 0 0 1 15.8 1.6 A 84.135 84.135 0 0 1 20.745 1.755 Q 23.475 1.916 26.525 2.245 A 156.521 156.521 0 0 1 30.3 2.7 A 39.795 39.795 0 0 1 33.62 3.272 Q 38.787 4.411 40.286 6.622 A 3.825 3.825 0 0 1 40.4 6.8 L 72.4 68.4 L 72.4 5.6 A 2.05 2.05 0 0 1 73.636 3.893 Q 76.829 2.015 88.267 1.822 A 161.966 161.966 0 0 1 91 1.8 Q 109.6 1.8 109.6 5.6 Z M 615 137.6 L 580 4.4 A 0.548 0.548 0 0 1 580.359 3.998 Q 581.767 3.217 588.7 2.5 A 218.655 218.655 0 0 1 594.315 1.988 Q 599.325 1.6 603 1.6 A 131.327 131.327 0 0 1 610.005 1.771 Q 625.372 2.597 626.2 7.4 L 643.4 95.4 L 659.6 7.4 A 4.228 4.228 0 0 1 661.818 4.728 Q 667.069 1.6 684.4 1.6 A 109.692 109.692 0 0 1 688.956 1.703 Q 691.159 1.795 693.67 1.97 A 250.428 250.428 0 0 1 699 2.4 A 122.974 122.974 0 0 1 701.535 2.655 Q 706.433 3.203 707.502 3.839 A 0.482 0.482 0 0 1 707.8 4.2 L 672.4 136.6 A 2.887 2.887 0 0 1 671.172 138.206 Q 668.549 140.077 660.6 140.8 A 203.432 203.432 0 0 1 647.877 141.76 Q 639.144 142.133 631.359 141.62 A 126.293 126.293 0 0 1 629.7 141.5 A 109.649 109.649 0 0 1 625.128 141.05 Q 615.656 139.897 615 137.6 Z M 961.2 50.2 L 961.2 149.8 A 28.942 28.942 0 0 1 959.405 160.215 Q 956.559 167.655 949.2 172.5 Q 937.2 180.4 918.4 180.4 A 126.073 126.073 0 0 1 900.731 179.219 A 94.541 94.541 0 0 1 884.8 175.6 Q 883.23 171.831 882.892 168.679 A 15.778 15.778 0 0 1 882.8 167 Q 882.8 154.2 887 148.2 Q 900.4 154 915.6 154 Q 926.6 154 926.6 146.2 L 926.6 140.2 Q 918.393 141.727 913.282 141.797 A 35.338 35.338 0 0 1 912.8 141.8 A 48.151 48.151 0 0 1 900.247 140.255 A 33.86 33.86 0 0 1 882.8 129.3 A 39.801 39.801 0 0 1 875.554 116.066 Q 873.589 110.215 872.775 103.062 A 95.364 95.364 0 0 1 872.2 92.3 Q 872.2 67.8 886.1 53.9 Q 900 40 923.1 40 Q 946.2 40 961.2 50.2 Z M 268.8 141.8 L 268.8 178.2 Q 268.8 179.593 251.881 179.6 A 415.415 415.415 0 0 1 251.7 179.6 Q 234.6 179.6 234.6 178.2 L 234.6 75.2 L 227.8 75.2 Q 223 75.2 221.2 66.4 A 23.124 23.124 0 0 1 220.846 64.181 Q 220.723 63.1 220.662 61.855 A 53.903 53.903 0 0 1 220.6 59.2 A 17.192 17.192 0 0 1 220.994 55.675 Q 221.363 53.917 222.078 51.962 A 39.93 39.93 0 0 1 223.4 48.8 A 17.982 17.982 0 0 1 226.198 44.351 Q 230.011 40.002 236.194 40 A 11.408 11.408 0 0 1 236.2 40 Q 242 40 246.9 42.7 A 45.755 45.755 0 0 1 249.419 44.187 Q 251.708 45.647 253.042 46.98 A 10.262 10.262 0 0 1 253.7 47.7 A 58.722 58.722 0 0 1 254.145 48.245 Q 255.295 49.672 255.536 50.19 A 0.555 0.555 0 0 1 255.6 50.4 A 50.404 50.404 0 0 1 270.004 42.44 A 44.257 44.257 0 0 1 284.6 40 A 34.995 34.995 0 0 1 310.34 50.992 A 46.329 46.329 0 0 1 311.4 52.1 Q 319.805 61.181 321.903 77.697 A 93.884 93.884 0 0 1 322.6 89.5 A 91.897 91.897 0 0 1 321.423 104.707 Q 318.969 119.307 311.4 128.7 Q 300.2 142.6 283 142.6 Q 275.2 142.6 268.8 141.8 Z M 414.8 76.6 L 414.8 108.2 L 421.6 108.2 A 5.059 5.059 0 0 1 425.601 110.131 Q 426.23 110.873 426.753 111.901 A 12.29 12.29 0 0 1 426.9 112.2 A 16.638 16.638 0 0 1 428.02 115.463 Q 428.8 118.716 428.8 123.2 A 29.168 29.168 0 0 1 426.308 134.87 A 35.012 35.012 0 0 1 425.3 137 Q 421.8 143.8 415.8 143.8 Q 405 143.8 398.4 138 Q 395.4 135.6 393.8 132.2 A 29.081 29.081 0 0 1 378.558 142.1 Q 372.627 143.8 365.2 143.8 A 33.63 33.63 0 0 1 349.856 140.324 A 34.103 34.103 0 0 1 340.6 133.4 Q 330.6 123 330.6 108.8 Q 330.6 78.518 364.252 76.365 A 83.825 83.825 0 0 1 369.6 76.2 L 380.6 76.2 L 380.6 74.2 A 24.972 24.972 0 0 0 380.519 72.102 Q 380.228 68.672 378.9 67.5 A 3.937 3.937 0 0 0 377.702 66.818 Q 375.783 66.079 371.862 66.008 A 47.371 47.371 0 0 0 371 66 Q 364.652 66 353.84 68.232 A 215.518 215.518 0 0 0 349.4 69.2 Q 343.8 59.2 343.8 52.9 A 18.082 18.082 0 0 1 343.987 50.194 Q 344.509 46.755 346.494 45.25 A 5.172 5.172 0 0 1 347.2 44.8 A 49.599 49.599 0 0 1 356.042 41.953 Q 365.294 39.834 378.093 39.801 A 157.4 157.4 0 0 1 378.5 39.8 Q 398.4 39.8 406.6 49.1 A 29.52 29.52 0 0 1 412.348 59.356 Q 414.8 66.647 414.8 76.6 Z M 175.6 107.2 L 161.8 107.2 A 17.048 17.048 0 0 0 162.033 110.127 Q 162.304 111.681 162.893 112.88 A 6.742 6.742 0 0 0 165.1 115.5 A 10.959 10.959 0 0 0 168.081 116.924 Q 169.53 117.383 171.303 117.601 A 28.662 28.662 0 0 0 174.8 117.8 Q 188.8 117.8 201.4 111.4 Q 201.6 111.2 203.2 114.2 A 54.266 54.266 0 0 1 205.627 119.068 Q 208 124.552 208 128.7 Q 208 131.973 206.831 133.984 A 5.893 5.893 0 0 1 204.2 136.4 Q 191.6 143.8 171.8 143.8 A 47.886 47.886 0 0 1 152.512 139.99 A 45.945 45.945 0 0 1 138.4 130.3 A 44.417 44.417 0 0 1 126.556 108.735 Q 124.8 101.489 124.8 92.9 A 70.934 70.934 0 0 1 126.642 76.283 A 49.503 49.503 0 0 1 137.9 54.4 A 51.497 51.497 0 0 1 138.105 54.173 Q 150.493 40.53 169.002 39.837 A 53.409 53.409 0 0 1 171 39.8 Q 191 39.8 201.9 50 A 34.228 34.228 0 0 1 210.324 61.884 A 33.331 33.331 0 0 1 212.8 74.8 A 40.158 40.158 0 0 1 210.688 88.401 Q 203.936 107.2 175.6 107.2 Z M 476.6 3.2 L 476.6 140.2 Q 476.6 141.991 456.416 142 A 459.838 459.838 0 0 1 456.2 142 Q 440.868 141.808 440.228 140.515 A 0.256 0.256 0 0 1 440.2 140.4 L 440.2 4.2 Q 440.2 1.603 454.737 1.254 A 203.441 203.441 0 0 1 459.6 1.2 Q 475.79 1.772 476.561 3.069 A 0.255 0.255 0 0 1 476.6 3.2 Z M 755.4 3.2 L 755.4 140.2 Q 755.4 141.991 735.216 142 A 459.838 459.838 0 0 1 735 142 Q 719.668 141.808 719.028 140.515 A 0.256 0.256 0 0 1 719 140.4 L 719 4.2 Q 719 1.603 733.537 1.254 A 203.441 203.441 0 0 1 738.4 1.2 Q 754.59 1.772 755.361 3.069 A 0.255 0.255 0 0 1 755.4 3.2 Z M 771.993 111.121 A 45.831 45.831 0 0 0 782.1 130 A 40.206 40.206 0 0 0 800.844 141.778 A 52.581 52.581 0 0 0 815.8 143.8 A 58.153 58.153 0 0 0 823.517 143.305 A 40.88 40.88 0 0 0 849.4 130 A 42.583 42.583 0 0 0 854.19 123.524 Q 858.499 116.385 860.368 107.16 A 77.386 77.386 0 0 0 861.8 91.8 A 90.555 90.555 0 0 0 861.699 87.473 Q 861.301 79.154 859.341 72.171 A 45.834 45.834 0 0 0 849.4 53.6 Q 837 39.8 815.8 39.8 A 58.298 58.298 0 0 0 808.156 40.285 A 41.243 41.243 0 0 0 782.1 53.6 A 42.571 42.571 0 0 0 777.436 59.808 Q 769.6 72.482 769.6 91.8 A 90.322 90.322 0 0 0 769.684 95.732 Q 770.049 104.096 771.993 111.121 Z M 531.2 42.4 L 531.2 140.6 Q 531.2 142.192 513.093 142.2 A 416.294 416.294 0 0 1 512.9 142.2 Q 495.504 142.2 494.645 140.935 A 0.237 0.237 0 0 1 494.6 140.8 L 494.6 42.6 A 0.751 0.751 0 0 1 495.243 42.124 Q 498.013 41.206 512.707 41.2 A 475.764 475.764 0 0 1 512.9 41.2 A 459.402 459.402 0 0 1 517.189 41.219 Q 530.147 41.34 531.121 42.247 A 0.211 0.211 0 0 1 531.2 42.4 Z M 531.2 1.2 L 531.2 30.6 A 0.751 0.751 0 0 1 530.557 31.076 Q 527.787 31.994 513.093 32 A 475.764 475.764 0 0 1 512.9 32 Q 495.803 32 494.679 30.953 A 0.211 0.211 0 0 1 494.6 30.8 L 494.6 2 A 0.974 0.974 0 0 1 495.355 1.27 Q 498.317 0 512.9 0 A 459.411 459.411 0 0 1 517.189 0.019 Q 530.147 0.14 531.121 1.047 A 0.211 0.211 0 0 1 531.2 1.2 Z M 926.6 111.2 L 926.6 73.2 Q 924.2 72.6 922 72.6 A 11.273 11.273 0 0 0 911.257 78.815 Q 908.767 83.49 908.611 91.683 A 58.381 58.381 0 0 0 908.6 92.8 A 47.41 47.41 0 0 0 908.886 98.223 Q 909.533 103.82 911.648 106.935 A 9.098 9.098 0 0 0 913.8 109.2 Q 916.901 111.572 920.002 111.78 A 8.91 8.91 0 0 0 920.6 111.8 Q 923.701 111.8 926.137 111.301 A 19.231 19.231 0 0 0 926.6 111.2 Z M 270.4 77.2 L 270.4 112.6 A 79.015 79.015 0 0 0 272.398 112.811 Q 274.39 112.994 275.806 113 A 22.501 22.501 0 0 0 275.9 113 L 279.2 113 A 6.634 6.634 0 0 0 284.335 109.448 Q 287.4 104.349 287.4 92 Q 287.4 75 277 75 A 10.899 10.899 0 0 0 272.016 76.236 A 14.175 14.175 0 0 0 270.4 77.2 Z M 804.624 89.944 A 55.889 55.889 0 0 0 804.6 91.6 Q 804.6 103.878 809.632 107.963 A 9.622 9.622 0 0 0 815.9 110 Q 826.679 110 827.176 93.257 A 55.889 55.889 0 0 0 827.2 91.6 Q 827.2 79.322 822.168 75.237 A 9.622 9.622 0 0 0 815.9 73.2 Q 805.121 73.2 804.624 89.944 Z M 380.6 112 L 380.6 96.6 L 375 96.6 A 14.177 14.177 0 0 0 371.259 97.05 Q 366.979 98.223 365.826 102.458 A 13.496 13.496 0 0 0 365.4 106 A 12.896 12.896 0 0 0 365.646 108.603 Q 365.972 110.182 366.728 111.384 A 6.916 6.916 0 0 0 367.8 112.7 A 8.184 8.184 0 0 0 372.775 114.944 A 10.997 10.997 0 0 0 373.9 115 A 8.802 8.802 0 0 0 379.303 113.132 A 12.252 12.252 0 0 0 380.6 112 Z M 161.8 79.2 L 161.8 85.4 L 172.6 85.4 A 9.191 9.191 0 0 0 175.249 85.052 Q 178.166 84.173 178.929 81.075 A 10.367 10.367 0 0 0 179.2 78.6 A 12.44 12.44 0 0 0 178.808 75.327 Q 177.784 71.582 174.09 70.573 A 11.739 11.739 0 0 0 171 70.2 A 10.452 10.452 0 0 0 167.374 70.812 A 9.394 9.394 0 0 0 164.5 72.5 A 7.405 7.405 0 0 0 162.091 76.539 A 11.455 11.455 0 0 0 161.8 79.2 Z" vector-effect="non-scaling-stroke" class="svg-elem-1"></path></g></svg>